<?xml version="1.0" encoding="utf-8"?><svg version="1.1" id="Layer_1" xmlns="http://www.w3.org/2000/svg" xmlns:xlink="http://www.w3.org/1999/xlink" x="0px" y="0px" viewBox="0 0 512 512" style="enable-background:new 0 0 512 512;" xml:space="preserve"><style type="text/css">.st0{fill:#0093FF;}</style><g><path class="st0" d="M496,384H64V80c0-8.8-7.2-16-16-16H16C7.2,64,0,71.2,0,80v352c0,8.8,7.2,16,16,16h480c8.8,0,16-7.2,16-16v-32 C512,391.2,504.8,384,496,384z"/><path class="st0" d="M464,96H192c-17.7,0-32,14.3-32,32v192c0,17.7,14.3,32,32,32h272c17.7,0,32-14.3,32-32V128 C496,110.3,481.7,96,464,96z M464,320H192V128h272V320z"/><path class="st0" d="M384,192h-64c-8.8,0-16,7.2-16,16v64c0,8.8,7.2,16,16,16h64c8.8,0,16-7.2,16-16v-64C400,199.2,392.8,192,384,192z M368,256h-32v-32h32V256z"/><path class="st0" d="M288,256h-64c-8.8,0-16,7.2-16,16v32c0,8.8,7.2,16,16,16h64c8.8,0,16-7.2,16-16v-32C304,263.2,296.8,256,288,256z M272,288h-32v-16h32V288z"/></g></svg>